<svg width="141" height="24" viewBox="0 0 141 24" fill="none" xmlns="http://www.w3.org/2000/svg">
<path d="M14.3705 9.36222H11.7143C11.6385 8.92661 11.4989 8.54072 11.2953 8.20455C11.0917 7.86364 10.8383 7.57481 10.5353 7.33807C10.2323 7.10133 9.88664 6.92377 9.49838 6.8054C9.11486 6.68229 8.70056 6.62074 8.25548 6.62074C7.46476 6.62074 6.764 6.8196 6.15321 7.21733C5.54241 7.61032 5.06419 8.18797 4.71855 8.95028C4.37291 9.70786 4.20008 10.6335 4.20008 11.7273C4.20008 12.84 4.37291 13.7775 4.71855 14.5398C5.06893 15.2973 5.54715 15.8703 6.15321 16.2585C6.764 16.642 7.4624 16.8338 8.24838 16.8338C8.68399 16.8338 9.09118 16.777 9.46997 16.6634C9.85349 16.545 10.1968 16.3722 10.4998 16.1449C10.8076 15.9176 11.0656 15.6383 11.2739 15.3068C11.487 14.9754 11.6338 14.5966 11.7143 14.1705L14.3705 14.1847C14.2711 14.8759 14.0557 15.5246 13.7242 16.1307C13.3975 16.7367 12.969 17.2718 12.4387 17.7358C11.9084 18.1951 11.2882 18.5549 10.5779 18.8153C9.8677 19.071 9.07935 19.1989 8.21287 19.1989C6.93446 19.1989 5.79336 18.9029 4.78957 18.3111C3.78579 17.7192 2.99507 16.8646 2.41741 15.7472C1.83976 14.6297 1.55094 13.2898 1.55094 11.7273C1.55094 10.16 1.84213 8.82008 2.42452 7.70739C3.0069 6.58996 3.79999 5.73532 4.80378 5.14347C5.80757 4.55161 6.94393 4.25568 8.21287 4.25568C9.02253 4.25568 9.77537 4.36932 10.4714 4.59659C11.1674 4.82386 11.7877 5.15767 12.3322 5.59801C12.8767 6.03362 13.3241 6.56866 13.6745 7.20312C14.0296 7.83286 14.2616 8.55256 14.3705 9.36222ZM19.8091 19.2202C19.1178 19.2202 18.4952 19.0971 17.9412 18.8509C17.392 18.5999 16.9564 18.2306 16.6344 17.7429C16.3172 17.2552 16.1585 16.6539 16.1585 15.9389C16.1585 15.3234 16.2722 14.8144 16.4994 14.4119C16.7267 14.0095 17.0369 13.6875 17.4298 13.446C17.8228 13.2045 18.2655 13.0223 18.758 12.8991C19.2551 12.7713 19.7689 12.679 20.2992 12.6222C20.9384 12.5559 21.4568 12.4967 21.8546 12.4446C22.2523 12.3878 22.5411 12.3026 22.721 12.1889C22.9057 12.0705 22.998 11.8883 22.998 11.642V11.5994C22.998 11.0644 22.8394 10.6501 22.5222 10.3565C22.2049 10.063 21.748 9.91619 21.1514 9.91619C20.5217 9.91619 20.0222 10.0535 19.6529 10.3281C19.2883 10.6027 19.0421 10.9271 18.9142 11.3011L16.5136 10.9602C16.703 10.2973 17.0155 9.74337 17.4511 9.2983C17.8868 8.84848 18.4194 8.51231 19.0492 8.28977C19.6789 8.0625 20.3749 7.94886 21.1372 7.94886C21.6628 7.94886 22.186 8.01042 22.7068 8.13352C23.2277 8.25663 23.7035 8.46023 24.1344 8.74432C24.5653 9.02367 24.9109 9.40483 25.1713 9.88778C25.4365 10.3707 25.569 10.9744 25.569 11.6989V19H23.0975V17.5014H23.0122C22.856 17.8045 22.6358 18.0885 22.3517 18.3537C22.0724 18.6141 21.7196 18.8248 21.2935 18.9858C20.8721 19.142 20.3773 19.2202 19.8091 19.2202ZM20.4767 17.331C20.9928 17.331 21.4403 17.2292 21.819 17.0256C22.1978 16.8172 22.489 16.5426 22.6926 16.2017C22.901 15.8608 23.0051 15.4891 23.0051 15.0866V13.8011C22.9246 13.8674 22.7873 13.929 22.5932 13.9858C22.4038 14.0426 22.1907 14.0923 21.954 14.1349C21.7172 14.1776 21.4829 14.2154 21.2509 14.2486C21.0189 14.2817 20.8176 14.3101 20.6472 14.3338C20.2636 14.3859 19.9204 14.4711 19.6173 14.5895C19.3143 14.7079 19.0752 14.8736 18.9 15.0866C18.7248 15.295 18.6372 15.5649 18.6372 15.8963C18.6372 16.3698 18.8101 16.7273 19.1557 16.9688C19.5013 17.2102 19.9417 17.331 20.4767 17.331ZM30.633 15.5199L35.0009 8.09091H37.6429V19H35.1571V11.5639L30.8034 19H28.1543V8.09091H30.633V15.5199ZM34.2977 4.34091H36.2225C36.2225 5.16951 35.9218 5.84186 35.3205 6.35795C34.7239 6.86932 33.9142 7.125 32.8915 7.125C31.8782 7.125 31.0709 6.86932 30.4696 6.35795C29.873 5.84186 29.5771 5.16951 29.5818 4.34091H31.4923C31.4923 4.68182 31.5965 4.98722 31.8048 5.2571C32.0179 5.52225 32.3801 5.65483 32.8915 5.65483C33.3934 5.65483 33.7509 5.52225 33.9639 5.2571C34.1817 4.99195 34.293 4.68655 34.2977 4.34091ZM39.0616 10.2003V8.09091H48.607V10.2003H45.0772V19H42.5914V10.2003H39.0616ZM58.0939 15.5199L62.4618 8.09091H65.1038V19H62.6181V11.5639L58.2644 19H55.6152V8.09091H58.0939V15.5199ZM72.1085 10.2003V8.09091H81.6539V10.2003H78.1241V19H75.6383V10.2003H72.1085ZM88.0105 19.2131C86.9451 19.2131 86.0218 18.9787 85.2406 18.5099C84.4593 18.0412 83.8533 17.3854 83.4224 16.5426C82.9962 15.6998 82.7832 14.715 82.7832 13.5881C82.7832 12.4612 82.9962 11.474 83.4224 10.6264C83.8533 9.77888 84.4593 9.12074 85.2406 8.65199C86.0218 8.18324 86.9451 7.94886 88.0105 7.94886C89.0758 7.94886 89.9991 8.18324 90.7803 8.65199C91.5616 9.12074 92.1653 9.77888 92.5914 10.6264C93.0223 11.474 93.2377 12.4612 93.2377 13.5881C93.2377 14.715 93.0223 15.6998 92.5914 16.5426C92.1653 17.3854 91.5616 18.0412 90.7803 18.5099C89.9991 18.9787 89.0758 19.2131 88.0105 19.2131ZM88.0247 17.1534C88.6023 17.1534 89.0853 16.9948 89.4735 16.6776C89.8618 16.3556 90.1506 15.9247 90.34 15.3849C90.5341 14.8452 90.6312 14.2438 90.6312 13.581C90.6312 12.9134 90.5341 12.3097 90.34 11.7699C90.1506 11.2254 89.8618 10.7921 89.4735 10.4702C89.0853 10.1482 88.6023 9.98722 88.0247 9.98722C87.4328 9.98722 86.9404 10.1482 86.5474 10.4702C86.1591 10.7921 85.8679 11.2254 85.6738 11.7699C85.4844 12.3097 85.3897 12.9134 85.3897 13.581C85.3897 14.2438 85.4844 14.8452 85.6738 15.3849C85.8679 15.9247 86.1591 16.3556 86.5474 16.6776C86.9404 16.9948 87.4328 17.1534 88.0247 17.1534ZM104.532 8.09091V19H102.061V8.09091H104.532ZM103.374 13.0199V15.1222C103.095 15.2453 102.778 15.3565 102.423 15.456C102.072 15.5507 101.701 15.6264 101.308 15.6832C100.919 15.7401 100.531 15.7685 100.143 15.7685C98.6846 15.7685 97.5316 15.4418 96.6841 14.7884C95.8413 14.1302 95.4199 13.1051 95.4199 11.7131V8.0767H97.8773V11.7131C97.8773 12.1818 97.9601 12.5582 98.1259 12.8423C98.2916 13.1264 98.5425 13.3348 98.8787 13.4673C99.2149 13.5952 99.6363 13.6591 100.143 13.6591C100.711 13.6591 101.251 13.6023 101.762 13.4886C102.274 13.375 102.811 13.2188 103.374 13.0199ZM107.119 19V8.09091H109.69V12.4943H110.628L113.909 8.09091H117.005L112.964 13.446L117.048 19H113.937L110.947 14.8878H109.69V19H107.119ZM121.645 19.2202C120.954 19.2202 120.331 19.0971 119.777 18.8509C119.228 18.5999 118.792 18.2306 118.47 17.7429C118.153 17.2552 117.994 16.6539 117.994 15.9389C117.994 15.3234 118.108 14.8144 118.335 14.4119C118.563 14.0095 118.873 13.6875 119.266 13.446C119.659 13.2045 120.101 13.0223 120.594 12.8991C121.091 12.7713 121.605 12.679 122.135 12.6222C122.774 12.5559 123.293 12.4967 123.69 12.4446C124.088 12.3878 124.377 12.3026 124.557 12.1889C124.742 12.0705 124.834 11.8883 124.834 11.642V11.5994C124.834 11.0644 124.675 10.6501 124.358 10.3565C124.041 10.063 123.584 9.91619 122.987 9.91619C122.358 9.91619 121.858 10.0535 121.489 10.3281C121.124 10.6027 120.878 10.9271 120.75 11.3011L118.35 10.9602C118.539 10.2973 118.851 9.74337 119.287 9.2983C119.723 8.84848 120.255 8.51231 120.885 8.28977C121.515 8.0625 122.211 7.94886 122.973 7.94886C123.499 7.94886 124.022 8.01042 124.543 8.13352C125.064 8.25663 125.539 8.46023 125.97 8.74432C126.401 9.02367 126.747 9.40483 127.007 9.88778C127.272 10.3707 127.405 10.9744 127.405 11.6989V19H124.933V17.5014H124.848C124.692 17.8045 124.472 18.0885 124.188 18.3537C123.908 18.6141 123.556 18.8248 123.129 18.9858C122.708 19.142 122.213 19.2202 121.645 19.2202ZM122.313 17.331C122.829 17.331 123.276 17.2292 123.655 17.0256C124.034 16.8172 124.325 16.5426 124.529 16.2017C124.737 15.8608 124.841 15.4891 124.841 15.0866V13.8011C124.761 13.8674 124.623 13.929 124.429 13.9858C124.24 14.0426 124.027 14.0923 123.79 14.1349C123.553 14.1776 123.319 14.2154 123.087 14.2486C122.855 14.2817 122.654 14.3101 122.483 14.3338C122.1 14.3859 121.756 14.4711 121.453 14.5895C121.15 14.7079 120.911 14.8736 120.736 15.0866C120.561 15.295 120.473 15.5649 120.473 15.8963C120.473 16.3698 120.646 16.7273 120.992 16.9688C121.337 17.2102 121.778 17.331 122.313 17.331Z" fill="white"/>
<circle cx="136.819" cy="15.1049" r="3.89496" fill="white"/>
</svg>
